<mxfile host="app.diagrams.net" modified="2022-03-04T06:57:58.158Z" agent="5.0 (Macintosh; Intel Mac OS X 10_15_7) AppleWebKit/537.36 (KHTML, like Gecko) Chrome/99.0.4844.51 Safari/537.36" etag="mkzyPi43jWaM8A5aMAC0" version="16.6.5" type="github">
  <diagram id="qrFzr8M6gn4D2GWuaVT7" name="Page-1">
    <mxGraphModel dx="946" dy="566" grid="1" gridSize="10" guides="1" tooltips="1" connect="1" arrows="1" fold="1" page="1" pageScale="1" pageWidth="850" pageHeight="1100" math="0" shadow="0">
      <root>
        <mxCell id="0" />
        <mxCell id="1" parent="0" />
        <mxCell id="b35UdGzB9y71jdkBOKCq-3" style="edgeStyle=orthogonalEdgeStyle;rounded=0;orthogonalLoop=1;jettySize=auto;html=1;entryX=0.5;entryY=0;entryDx=0;entryDy=0;" edge="1" parent="1" source="b35UdGzB9y71jdkBOKCq-1" target="b35UdGzB9y71jdkBOKCq-2">
          <mxGeometry relative="1" as="geometry" />
        </mxCell>
        <mxCell id="b35UdGzB9y71jdkBOKCq-1" value="Start" style="ellipse;whiteSpace=wrap;html=1;" vertex="1" parent="1">
          <mxGeometry x="350" y="70" width="120" height="80" as="geometry" />
        </mxCell>
        <mxCell id="b35UdGzB9y71jdkBOKCq-5" style="edgeStyle=orthogonalEdgeStyle;rounded=0;orthogonalLoop=1;jettySize=auto;html=1;entryX=0.5;entryY=0;entryDx=0;entryDy=0;" edge="1" parent="1" source="b35UdGzB9y71jdkBOKCq-2" target="b35UdGzB9y71jdkBOKCq-4">
          <mxGeometry relative="1" as="geometry" />
        </mxCell>
        <mxCell id="b35UdGzB9y71jdkBOKCq-2" value="Passenger requests a ride" style="rounded=0;whiteSpace=wrap;html=1;" vertex="1" parent="1">
          <mxGeometry x="330" y="180" width="160" height="70" as="geometry" />
        </mxCell>
        <mxCell id="b35UdGzB9y71jdkBOKCq-4" value="Is&lt;br&gt;price&amp;nbsp;&lt;br&gt;suitable?" style="rhombus;whiteSpace=wrap;html=1;" vertex="1" parent="1">
          <mxGeometry x="330" y="290" width="160" height="140" as="geometry" />
        </mxCell>
      </root>
    </mxGraphModel>
  </diagram>
</mxfile>
